<svg xmlns="http://www.w3.org/2000/svg" aria-hidden="true" style="position:absolute;width:0;height:0;overflow:hidden"><defs><symbol id="icon-person-black-18dp-1-1" viewBox="0 0 32 32"><path d="M16 16c2.947 0 5.333-2.387 5.333-5.333S18.946 5.334 16 5.334c-2.947 0-5.333 2.387-5.333 5.333S13.054 16 16 16zm0 2.667c-3.56 0-10.667 1.787-10.667 5.333v1.333c0 .733.6 1.333 1.333 1.333h18.667c.733 0 1.333-.6 1.333-1.333V24c0-3.547-7.107-5.333-10.667-5.333z"/></symbol><symbol id="icon-Property-1click" viewBox="0 0 32 32"><path  d="M4 1h24a3 3 0 0 1 3 3v24a3 3 0 0 1-3 3H4a3 3 0 0 1-3-3V4a3 3 0 0 1 3-3z" style="fill:var(--color1, #404bbf)"/><path fill="#f4f4fd" d="M22.891 8.51a1.832 1.832 0 0 1 2.558.02 1.855 1.855 0 0 1 .068 2.571L15.728 23.41a1.845 1.845 0 0 1-1.314.591 1.83 1.83 0 0 1-1.336-.542l-6.492-6.527a1.863 1.863 0 0 1-.451-2.046 1.85 1.85 0 0 1 1.017-1.022 1.823 1.823 0 0 1 1.438.026c.225.101.429.247.597.429l5.137 5.163 8.521-10.915a.628.628 0 0 1 .049-.054h-.002z" style="fill:var(--color2, #f4f4fd)"/><path fill="none" stroke="#404bbf" stroke-width="2" d="M4 1h24a3 3 0 0 1 3 3v24a3 3 0 0 1-3 3H4a3 3 0 0 1-3-3V4a3 3 0 0 1 3-3z" style="stroke:var(--color1, #404bbf)"/></symbol><symbol id="icon-email-black-18dp-1" viewBox="0 0 24 32"><path d="M20 8H4c-1.1 0-1.99.9-1.99 2L2 22c0 1.1.9 2 2 2h16c1.1 0 2-.9 2-2V10c0-1.1-.9-2-2-2zm-.4 4.25-7.07 4.42c-.32.2-.74.2-1.06 0L4.4 12.25a.85.85 0 1 1 .9-1.44L12 15l6.7-4.19a.85.85 0 1 1 .9 1.44z"/></symbol><symbol id="icon-phone-black-18dp-1" viewBox="0 0 24 32"><path d="m19.635 18.487-2.451-.28a1.92 1.92 0 0 0-1.582.55l-1.775 1.775a14.514 14.514 0 0 1-6.359-6.359l1.785-1.785c.415-.415.618-.994.55-1.582l-.28-2.432a1.931 1.931 0 0 0-1.92-1.708H5.934c-1.09 0-1.997.907-1.93 1.997.511 8.24 7.102 14.821 15.332 15.332 1.09.068 1.997-.839 1.997-1.93v-1.669a1.913 1.913 0 0 0-1.698-1.911z"/></symbol></defs></svg>